<mxfile host="Electron" agent="Mozilla/5.0 (Windows NT 10.0; Win64; x64) AppleWebKit/537.36 (KHTML, like Gecko) draw.io/27.0.9 Chrome/134.0.6998.205 Electron/35.4.0 Safari/537.36" version="27.0.9" pages="3">
  <diagram name="Page-1" id="_MZunFCSGSXDZvP4XLIe">
    <mxGraphModel dx="1042" dy="634" grid="1" gridSize="10" guides="1" tooltips="1" connect="1" arrows="1" fold="1" page="1" pageScale="1" pageWidth="850" pageHeight="1100" math="0" shadow="0">
      <root>
        <mxCell id="0" />
        <mxCell id="1" parent="0" />
        <mxCell id="dfIYXDZ7u6gpBdYXQTYF-1" value="" style="rounded=0;whiteSpace=wrap;html=1;fillColor=none;strokeColor=#808080;fontColor=#333333;" parent="1" vertex="1">
          <mxGeometry x="39.5" y="80" width="120" height="450" as="geometry" />
        </mxCell>
        <mxCell id="dfIYXDZ7u6gpBdYXQTYF-3" value="&lt;font style=&quot;font-size: 14px;&quot;&gt;&lt;b&gt;Sources&lt;/b&gt;&lt;/font&gt;" style="rounded=0;whiteSpace=wrap;html=1;strokeColor=none;" parent="1" vertex="1">
          <mxGeometry x="60" y="60" width="80" height="30" as="geometry" />
        </mxCell>
        <mxCell id="dfIYXDZ7u6gpBdYXQTYF-4" value="&lt;font style=&quot;font-size: 14px;&quot;&gt;CRM&lt;/font&gt;" style="image;aspect=fixed;html=1;points=[];align=center;fontSize=12;image=img/lib/azure2/general/Folder_Blank.svg;" parent="1" vertex="1">
          <mxGeometry x="65.5" y="180" width="68" height="55.19" as="geometry" />
        </mxCell>
        <mxCell id="dfIYXDZ7u6gpBdYXQTYF-11" value="&lt;font style=&quot;font-size: 14px;&quot;&gt;ERP&lt;/font&gt;" style="image;aspect=fixed;html=1;points=[];align=center;fontSize=12;image=img/lib/azure2/general/Folder_Blank.svg;" parent="1" vertex="1">
          <mxGeometry x="65.5" y="398" width="69" height="56.00000000000001" as="geometry" />
        </mxCell>
        <mxCell id="dfIYXDZ7u6gpBdYXQTYF-16" value="" style="rounded=0;whiteSpace=wrap;html=1;fillColor=none;strokeColor=#d6b656;" parent="1" vertex="1">
          <mxGeometry x="190" y="120" width="140" height="410" as="geometry" />
        </mxCell>
        <mxCell id="dfIYXDZ7u6gpBdYXQTYF-19" value="&lt;b&gt;&lt;font style=&quot;font-size: 14px;&quot;&gt;BRONZE LAYER&lt;/font&gt;&lt;/b&gt;" style="rounded=1;whiteSpace=wrap;html=1;strokeColor=#808080;fillColor=#fff2cc;" parent="1" vertex="1">
          <mxGeometry x="190" y="80" width="140" height="33" as="geometry" />
        </mxCell>
        <mxCell id="K_fMLum1hrlOaTZXc9xu-18" style="edgeStyle=orthogonalEdgeStyle;rounded=0;orthogonalLoop=1;jettySize=auto;html=1;exitX=1;exitY=0.5;exitDx=0;exitDy=0;entryX=0;entryY=0.5;entryDx=0;entryDy=0;" parent="1" source="dfIYXDZ7u6gpBdYXQTYF-20" target="K_fMLum1hrlOaTZXc9xu-12" edge="1">
          <mxGeometry relative="1" as="geometry" />
        </mxCell>
        <mxCell id="dfIYXDZ7u6gpBdYXQTYF-20" value="&lt;span style=&quot;font-size: 14px;&quot;&gt;&lt;b&gt;crm_sales_details&lt;/b&gt;&lt;/span&gt;" style="rounded=1;whiteSpace=wrap;html=1;strokeColor=#FFE599;fillColor=#fff2cc;" parent="1" vertex="1">
          <mxGeometry x="190" y="140" width="140" height="40" as="geometry" />
        </mxCell>
        <mxCell id="K_fMLum1hrlOaTZXc9xu-19" style="edgeStyle=orthogonalEdgeStyle;rounded=0;orthogonalLoop=1;jettySize=auto;html=1;exitX=1;exitY=0.5;exitDx=0;exitDy=0;" parent="1" source="dfIYXDZ7u6gpBdYXQTYF-21" target="K_fMLum1hrlOaTZXc9xu-13" edge="1">
          <mxGeometry relative="1" as="geometry" />
        </mxCell>
        <mxCell id="dfIYXDZ7u6gpBdYXQTYF-21" value="&lt;font style=&quot;font-size: 14px;&quot;&gt;&lt;b&gt;&lt;font style=&quot;&quot;&gt;crm_cust_inf&lt;/font&gt;&lt;/b&gt;o&lt;/font&gt;" style="rounded=1;whiteSpace=wrap;html=1;strokeColor=#FFE599;fillColor=#fff2cc;" parent="1" vertex="1">
          <mxGeometry x="190" y="195.19" width="140" height="40" as="geometry" />
        </mxCell>
        <mxCell id="K_fMLum1hrlOaTZXc9xu-20" style="edgeStyle=orthogonalEdgeStyle;rounded=0;orthogonalLoop=1;jettySize=auto;html=1;exitX=1;exitY=0.5;exitDx=0;exitDy=0;entryX=0;entryY=0.5;entryDx=0;entryDy=0;" parent="1" source="dfIYXDZ7u6gpBdYXQTYF-23" target="K_fMLum1hrlOaTZXc9xu-14" edge="1">
          <mxGeometry relative="1" as="geometry" />
        </mxCell>
        <mxCell id="dfIYXDZ7u6gpBdYXQTYF-23" value="&lt;span style=&quot;font-size: 14px;&quot;&gt;&lt;b&gt;crm_prd_info&lt;/b&gt;&lt;/span&gt;" style="rounded=1;whiteSpace=wrap;html=1;strokeColor=#FFE599;fillColor=#fff2cc;" parent="1" vertex="1">
          <mxGeometry x="190" y="250" width="140" height="40" as="geometry" />
        </mxCell>
        <mxCell id="dfIYXDZ7u6gpBdYXQTYF-25" value="" style="endArrow=classic;html=1;rounded=0;" parent="1" edge="1">
          <mxGeometry width="50" height="50" relative="1" as="geometry">
            <mxPoint x="130" y="215" as="sourcePoint" />
            <mxPoint x="190" y="214.69" as="targetPoint" />
          </mxGeometry>
        </mxCell>
        <mxCell id="K_fMLum1hrlOaTZXc9xu-21" style="edgeStyle=orthogonalEdgeStyle;rounded=0;orthogonalLoop=1;jettySize=auto;html=1;exitX=1;exitY=0.5;exitDx=0;exitDy=0;entryX=0;entryY=0.5;entryDx=0;entryDy=0;" parent="1" source="dfIYXDZ7u6gpBdYXQTYF-26" target="K_fMLum1hrlOaTZXc9xu-15" edge="1">
          <mxGeometry relative="1" as="geometry" />
        </mxCell>
        <mxCell id="dfIYXDZ7u6gpBdYXQTYF-26" value="&lt;span style=&quot;font-size: 14px;&quot;&gt;&lt;b&gt;erp_cust_az12&lt;/b&gt;&lt;/span&gt;" style="rounded=1;whiteSpace=wrap;html=1;strokeColor=#FFE599;fillColor=#fff2cc;" parent="1" vertex="1">
          <mxGeometry x="190" y="350" width="140" height="40" as="geometry" />
        </mxCell>
        <mxCell id="K_fMLum1hrlOaTZXc9xu-23" style="edgeStyle=orthogonalEdgeStyle;rounded=0;orthogonalLoop=1;jettySize=auto;html=1;exitX=1;exitY=0.5;exitDx=0;exitDy=0;entryX=0;entryY=0.5;entryDx=0;entryDy=0;" parent="1" source="dfIYXDZ7u6gpBdYXQTYF-27" target="K_fMLum1hrlOaTZXc9xu-16" edge="1">
          <mxGeometry relative="1" as="geometry" />
        </mxCell>
        <mxCell id="dfIYXDZ7u6gpBdYXQTYF-27" value="&lt;span style=&quot;font-size: 14px;&quot;&gt;&lt;b&gt;erp_loc_a101&lt;/b&gt;&lt;/span&gt;" style="rounded=1;whiteSpace=wrap;html=1;strokeColor=#FFE599;fillColor=#fff2cc;" parent="1" vertex="1">
          <mxGeometry x="190" y="410" width="140" height="40" as="geometry" />
        </mxCell>
        <mxCell id="dfIYXDZ7u6gpBdYXQTYF-28" value="&lt;span style=&quot;font-size: 14px;&quot;&gt;&lt;b&gt;erp_px_cat_g1v2&lt;/b&gt;&lt;/span&gt;" style="rounded=1;whiteSpace=wrap;html=1;strokeColor=#FFE599;fillColor=#fff2cc;" parent="1" vertex="1">
          <mxGeometry x="190" y="470" width="140" height="40" as="geometry" />
        </mxCell>
        <mxCell id="dfIYXDZ7u6gpBdYXQTYF-29" value="" style="endArrow=classic;html=1;rounded=0;" parent="1" edge="1">
          <mxGeometry width="50" height="50" relative="1" as="geometry">
            <mxPoint x="133" y="430.31" as="sourcePoint" />
            <mxPoint x="193" y="430" as="targetPoint" />
          </mxGeometry>
        </mxCell>
        <mxCell id="dfIYXDZ7u6gpBdYXQTYF-30" value="" style="endArrow=classic;html=1;rounded=0;" parent="1" edge="1">
          <mxGeometry width="50" height="50" relative="1" as="geometry">
            <mxPoint x="150" y="159.5" as="sourcePoint" />
            <mxPoint x="190" y="159.5" as="targetPoint" />
          </mxGeometry>
        </mxCell>
        <mxCell id="dfIYXDZ7u6gpBdYXQTYF-33" value="" style="endArrow=classic;html=1;rounded=0;" parent="1" edge="1">
          <mxGeometry width="50" height="50" relative="1" as="geometry">
            <mxPoint x="151" y="270" as="sourcePoint" />
            <mxPoint x="191" y="270" as="targetPoint" />
          </mxGeometry>
        </mxCell>
        <mxCell id="dfIYXDZ7u6gpBdYXQTYF-35" value="" style="endArrow=none;html=1;rounded=0;" parent="1" edge="1">
          <mxGeometry width="50" height="50" relative="1" as="geometry">
            <mxPoint x="150" y="270" as="sourcePoint" />
            <mxPoint x="150" y="160" as="targetPoint" />
          </mxGeometry>
        </mxCell>
        <mxCell id="dfIYXDZ7u6gpBdYXQTYF-53" value="" style="endArrow=classic;html=1;rounded=0;" parent="1" edge="1">
          <mxGeometry width="50" height="50" relative="1" as="geometry">
            <mxPoint x="150" y="369" as="sourcePoint" />
            <mxPoint x="191" y="369" as="targetPoint" />
          </mxGeometry>
        </mxCell>
        <mxCell id="dfIYXDZ7u6gpBdYXQTYF-54" value="" style="endArrow=classic;html=1;rounded=0;" parent="1" edge="1">
          <mxGeometry width="50" height="50" relative="1" as="geometry">
            <mxPoint x="149" y="489.5" as="sourcePoint" />
            <mxPoint x="190" y="489.5" as="targetPoint" />
          </mxGeometry>
        </mxCell>
        <mxCell id="dfIYXDZ7u6gpBdYXQTYF-55" value="" style="endArrow=none;html=1;rounded=0;" parent="1" edge="1">
          <mxGeometry width="50" height="50" relative="1" as="geometry">
            <mxPoint x="150" y="490" as="sourcePoint" />
            <mxPoint x="150" y="369.7" as="targetPoint" />
          </mxGeometry>
        </mxCell>
        <mxCell id="K_fMLum1hrlOaTZXc9xu-10" value="" style="rounded=0;whiteSpace=wrap;html=1;fillColor=none;strokeColor=#777777;" parent="1" vertex="1">
          <mxGeometry x="370" y="120" width="140" height="410" as="geometry" />
        </mxCell>
        <mxCell id="K_fMLum1hrlOaTZXc9xu-11" value="&lt;b&gt;&lt;font style=&quot;font-size: 14px;&quot;&gt;SILVER LAYER&lt;/font&gt;&lt;/b&gt;" style="rounded=1;whiteSpace=wrap;html=1;strokeColor=#666666;fillColor=#f5f5f5;" parent="1" vertex="1">
          <mxGeometry x="370" y="80" width="140" height="33" as="geometry" />
        </mxCell>
        <mxCell id="OgPeDNQ8bXvQHPWLIAGy-23" style="edgeStyle=orthogonalEdgeStyle;rounded=0;orthogonalLoop=1;jettySize=auto;html=1;exitX=1;exitY=0.5;exitDx=0;exitDy=0;entryX=0;entryY=0.25;entryDx=0;entryDy=0;" edge="1" parent="1" source="K_fMLum1hrlOaTZXc9xu-12" target="OgPeDNQ8bXvQHPWLIAGy-1">
          <mxGeometry relative="1" as="geometry" />
        </mxCell>
        <mxCell id="K_fMLum1hrlOaTZXc9xu-12" value="&lt;span style=&quot;font-size: 14px;&quot;&gt;&lt;b&gt;crm_sales_details&lt;/b&gt;&lt;/span&gt;" style="rounded=1;whiteSpace=wrap;html=1;strokeColor=#666666;fillColor=#f5f5f5;" parent="1" vertex="1">
          <mxGeometry x="370" y="140" width="140" height="40" as="geometry" />
        </mxCell>
        <mxCell id="K_fMLum1hrlOaTZXc9xu-13" value="&lt;font style=&quot;font-size: 14px;&quot;&gt;&lt;b&gt;&lt;font style=&quot;&quot;&gt;crm_cust_inf&lt;/font&gt;&lt;/b&gt;o&lt;/font&gt;" style="rounded=1;whiteSpace=wrap;html=1;strokeColor=#666666;fillColor=#f5f5f5;" parent="1" vertex="1">
          <mxGeometry x="370" y="195.19" width="140" height="40" as="geometry" />
        </mxCell>
        <mxCell id="K_fMLum1hrlOaTZXc9xu-14" value="&lt;span style=&quot;font-size: 14px;&quot;&gt;&lt;b&gt;crm_prd_info&lt;/b&gt;&lt;/span&gt;" style="rounded=1;whiteSpace=wrap;html=1;strokeColor=#666666;fillColor=#f5f5f5;" parent="1" vertex="1">
          <mxGeometry x="370" y="250" width="140" height="40" as="geometry" />
        </mxCell>
        <mxCell id="OgPeDNQ8bXvQHPWLIAGy-19" style="edgeStyle=orthogonalEdgeStyle;rounded=0;orthogonalLoop=1;jettySize=auto;html=1;exitX=1;exitY=0.5;exitDx=0;exitDy=0;entryX=0;entryY=0.5;entryDx=0;entryDy=0;" edge="1" parent="1" source="K_fMLum1hrlOaTZXc9xu-15" target="OgPeDNQ8bXvQHPWLIAGy-1">
          <mxGeometry relative="1" as="geometry" />
        </mxCell>
        <mxCell id="K_fMLum1hrlOaTZXc9xu-15" value="&lt;span style=&quot;font-size: 14px;&quot;&gt;&lt;b&gt;erp_cust_az12&lt;/b&gt;&lt;/span&gt;" style="rounded=1;whiteSpace=wrap;html=1;strokeColor=#666666;fillColor=#f5f5f5;" parent="1" vertex="1">
          <mxGeometry x="370" y="350" width="140" height="40" as="geometry" />
        </mxCell>
        <mxCell id="K_fMLum1hrlOaTZXc9xu-16" value="&lt;span style=&quot;font-size: 14px;&quot;&gt;&lt;b&gt;erp_loc_a101&lt;/b&gt;&lt;/span&gt;" style="rounded=1;whiteSpace=wrap;html=1;strokeColor=#666666;fillColor=#f5f5f5;" parent="1" vertex="1">
          <mxGeometry x="370" y="410" width="140" height="40" as="geometry" />
        </mxCell>
        <mxCell id="K_fMLum1hrlOaTZXc9xu-17" value="&lt;span style=&quot;font-size: 14px;&quot;&gt;&lt;b&gt;erp_px_cat_g1v2&lt;/b&gt;&lt;/span&gt;" style="rounded=1;whiteSpace=wrap;html=1;strokeColor=#666666;fillColor=#f5f5f5;" parent="1" vertex="1">
          <mxGeometry x="370" y="470" width="140" height="40" as="geometry" />
        </mxCell>
        <mxCell id="K_fMLum1hrlOaTZXc9xu-24" style="edgeStyle=orthogonalEdgeStyle;rounded=0;orthogonalLoop=1;jettySize=auto;html=1;exitX=1;exitY=0.5;exitDx=0;exitDy=0;entryX=0.006;entryY=0.901;entryDx=0;entryDy=0;entryPerimeter=0;" parent="1" source="dfIYXDZ7u6gpBdYXQTYF-28" target="K_fMLum1hrlOaTZXc9xu-10" edge="1">
          <mxGeometry relative="1" as="geometry" />
        </mxCell>
        <mxCell id="K_fMLum1hrlOaTZXc9xu-26" value="&lt;b&gt;&lt;font style=&quot;font-size: 25px;&quot;&gt;DATA FLOW DIAGRAM&amp;nbsp;&lt;/font&gt;&lt;/b&gt;" style="text;html=1;align=center;verticalAlign=middle;resizable=0;points=[];autosize=1;strokeColor=none;fillColor=none;labelBackgroundColor=#FFFFFF;" parent="1" vertex="1">
          <mxGeometry x="270" y="10" width="290" height="40" as="geometry" />
        </mxCell>
        <mxCell id="OgPeDNQ8bXvQHPWLIAGy-1" value="" style="rounded=0;whiteSpace=wrap;html=1;fillColor=none;strokeColor=#FF9933;" vertex="1" parent="1">
          <mxGeometry x="559" y="120" width="140" height="410" as="geometry" />
        </mxCell>
        <mxCell id="OgPeDNQ8bXvQHPWLIAGy-2" value="&lt;b&gt;&lt;font style=&quot;font-size: 14px;&quot;&gt;GOLD LAYER&lt;/font&gt;&lt;/b&gt;" style="rounded=1;whiteSpace=wrap;html=1;strokeColor=#d6b656;fillColor=#fff2cc;gradientColor=#ffd966;" vertex="1" parent="1">
          <mxGeometry x="559" y="80" width="140" height="33" as="geometry" />
        </mxCell>
        <mxCell id="OgPeDNQ8bXvQHPWLIAGy-3" value="&lt;span style=&quot;font-size: 14px;&quot;&gt;&lt;b&gt;fact_sales&lt;/b&gt;&lt;/span&gt;" style="rounded=1;whiteSpace=wrap;html=1;strokeColor=#d6b656;fillColor=#fff2cc;gradientColor=#ffd966;" vertex="1" parent="1">
          <mxGeometry x="560" y="210" width="140" height="40" as="geometry" />
        </mxCell>
        <mxCell id="OgPeDNQ8bXvQHPWLIAGy-4" value="&lt;span style=&quot;font-size: 14px;&quot;&gt;&lt;b&gt;dim_customers&lt;/b&gt;&lt;/span&gt;" style="rounded=1;whiteSpace=wrap;html=1;strokeColor=#d6b656;fillColor=#fff2cc;gradientColor=#ffd966;" vertex="1" parent="1">
          <mxGeometry x="559" y="297.19" width="140" height="40" as="geometry" />
        </mxCell>
        <mxCell id="OgPeDNQ8bXvQHPWLIAGy-5" value="&lt;span style=&quot;font-size: 14px;&quot;&gt;&lt;b&gt;dim_products&lt;/b&gt;&lt;/span&gt;" style="rounded=1;whiteSpace=wrap;html=1;strokeColor=#d6b656;fillColor=#fff2cc;gradientColor=#ffd966;" vertex="1" parent="1">
          <mxGeometry x="559" y="430" width="140" height="40" as="geometry" />
        </mxCell>
        <mxCell id="OgPeDNQ8bXvQHPWLIAGy-18" style="edgeStyle=orthogonalEdgeStyle;rounded=0;orthogonalLoop=1;jettySize=auto;html=1;exitX=1;exitY=0.5;exitDx=0;exitDy=0;entryX=-0.019;entryY=0.476;entryDx=0;entryDy=0;entryPerimeter=0;" edge="1" parent="1" source="K_fMLum1hrlOaTZXc9xu-13" target="OgPeDNQ8bXvQHPWLIAGy-1">
          <mxGeometry relative="1" as="geometry" />
        </mxCell>
        <mxCell id="OgPeDNQ8bXvQHPWLIAGy-20" style="edgeStyle=orthogonalEdgeStyle;rounded=0;orthogonalLoop=1;jettySize=auto;html=1;exitX=1;exitY=0.5;exitDx=0;exitDy=0;entryX=0.016;entryY=0.525;entryDx=0;entryDy=0;entryPerimeter=0;" edge="1" parent="1" source="K_fMLum1hrlOaTZXc9xu-16" target="OgPeDNQ8bXvQHPWLIAGy-1">
          <mxGeometry relative="1" as="geometry" />
        </mxCell>
        <mxCell id="OgPeDNQ8bXvQHPWLIAGy-22" style="edgeStyle=orthogonalEdgeStyle;rounded=0;orthogonalLoop=1;jettySize=auto;html=1;exitX=1;exitY=0.5;exitDx=0;exitDy=0;entryX=0.016;entryY=0.82;entryDx=0;entryDy=0;entryPerimeter=0;" edge="1" parent="1" source="K_fMLum1hrlOaTZXc9xu-14" target="OgPeDNQ8bXvQHPWLIAGy-1">
          <mxGeometry relative="1" as="geometry" />
        </mxCell>
        <mxCell id="OgPeDNQ8bXvQHPWLIAGy-24" style="edgeStyle=orthogonalEdgeStyle;rounded=0;orthogonalLoop=1;jettySize=auto;html=1;exitX=1;exitY=0.75;exitDx=0;exitDy=0;entryX=0.004;entryY=0.839;entryDx=0;entryDy=0;entryPerimeter=0;" edge="1" parent="1" source="K_fMLum1hrlOaTZXc9xu-17" target="OgPeDNQ8bXvQHPWLIAGy-1">
          <mxGeometry relative="1" as="geometry" />
        </mxCell>
      </root>
    </mxGraphModel>
  </diagram>
  <diagram id="HtwM3upSkkJdKWD2PzQ7" name="Page-2">
    <mxGraphModel dx="1892" dy="634" grid="1" gridSize="10" guides="1" tooltips="1" connect="1" arrows="1" fold="1" page="1" pageScale="1" pageWidth="850" pageHeight="1100" math="0" shadow="0">
      <root>
        <mxCell id="0" />
        <mxCell id="1" parent="0" />
        <mxCell id="8Dii8_jfuBK2aN7Jaqxq-1" value="`" style="swimlane;fontStyle=0;childLayout=stackLayout;horizontal=1;startSize=30;horizontalStack=0;resizeParent=1;resizeParentMax=0;resizeLast=0;collapsible=1;marginBottom=0;whiteSpace=wrap;html=1;rounded=1;fillColor=#dae8fc;strokeColor=#6c8ebf;fontSize=20;" parent="1" vertex="1">
          <mxGeometry x="-575" y="378" width="200" height="90" as="geometry" />
        </mxCell>
        <mxCell id="8Dii8_jfuBK2aN7Jaqxq-4" value="&lt;font style=&quot;font-size: 18px;&quot;&gt;cust_id&lt;/font&gt;" style="text;align=left;verticalAlign=middle;spacingLeft=4;spacingRight=4;overflow=hidden;points=[[0,0.5],[1,0.5]];portConstraint=eastwest;rotatable=0;whiteSpace=wrap;html=1;rounded=1;fontSize=20;" parent="8Dii8_jfuBK2aN7Jaqxq-1" vertex="1">
          <mxGeometry y="30" width="200" height="30" as="geometry" />
        </mxCell>
        <mxCell id="8Dii8_jfuBK2aN7Jaqxq-33" value="&lt;font style=&quot;font-size: 18px;&quot;&gt;cust_key&lt;/font&gt;" style="text;align=left;verticalAlign=middle;spacingLeft=4;spacingRight=4;overflow=hidden;points=[[0,0.5],[1,0.5]];portConstraint=eastwest;rotatable=0;whiteSpace=wrap;html=1;rounded=1;fontSize=20;" parent="8Dii8_jfuBK2aN7Jaqxq-1" vertex="1">
          <mxGeometry y="60" width="200" height="30" as="geometry" />
        </mxCell>
        <mxCell id="8Dii8_jfuBK2aN7Jaqxq-5" value="&lt;font style=&quot;font-size: 18px;&quot;&gt;Customer Information&lt;/font&gt;" style="text;html=1;align=center;verticalAlign=middle;whiteSpace=wrap;rounded=0;" parent="1" vertex="1">
          <mxGeometry x="-579" y="350" width="210" height="30" as="geometry" />
        </mxCell>
        <mxCell id="8Dii8_jfuBK2aN7Jaqxq-6" value="&lt;b&gt;&lt;font style=&quot;font-size: 21px;&quot;&gt;INTEGRATION MODEL&lt;/font&gt;&lt;/b&gt;" style="text;html=1;align=center;verticalAlign=middle;whiteSpace=wrap;rounded=0;labelBackgroundColor=#FFFFFF;" parent="1" vertex="1">
          <mxGeometry x="-585" y="50" width="350" height="30" as="geometry" />
        </mxCell>
        <mxCell id="8Dii8_jfuBK2aN7Jaqxq-9" value="&lt;font style=&quot;font-size: 18px;&quot;&gt;Current and History Product Information&lt;/font&gt;" style="text;html=1;align=center;verticalAlign=middle;whiteSpace=wrap;rounded=0;" parent="1" vertex="1">
          <mxGeometry x="-585" y="200" width="231" height="30" as="geometry" />
        </mxCell>
        <mxCell id="8Dii8_jfuBK2aN7Jaqxq-10" value="&lt;font style=&quot;font-size: 18px;&quot;&gt;crm_prd_info&lt;/font&gt;" style="swimlane;fontStyle=0;childLayout=stackLayout;horizontal=1;startSize=30;horizontalStack=0;resizeParent=1;resizeParentMax=0;resizeLast=0;collapsible=1;marginBottom=0;whiteSpace=wrap;html=1;rounded=1;fillColor=#dae8fc;strokeColor=#6c8ebf;fontSize=20;" parent="1" vertex="1">
          <mxGeometry x="-574" y="238" width="200" height="60" as="geometry" />
        </mxCell>
        <mxCell id="8Dii8_jfuBK2aN7Jaqxq-11" value="&lt;font style=&quot;font-size: 18px;&quot;&gt;prd_key&lt;/font&gt;" style="text;align=left;verticalAlign=middle;spacingLeft=4;spacingRight=4;overflow=hidden;points=[[0,0.5],[1,0.5]];portConstraint=eastwest;rotatable=0;whiteSpace=wrap;html=1;rounded=1;fontSize=20;" parent="8Dii8_jfuBK2aN7Jaqxq-10" vertex="1">
          <mxGeometry y="30" width="200" height="30" as="geometry" />
        </mxCell>
        <mxCell id="8Dii8_jfuBK2aN7Jaqxq-13" value="&lt;font style=&quot;font-size: 18px;&quot;&gt;crm_cust_info&lt;/font&gt;" style="swimlane;fontStyle=0;childLayout=stackLayout;horizontal=1;startSize=30;horizontalStack=0;resizeParent=1;resizeParentMax=0;resizeLast=0;collapsible=1;marginBottom=0;whiteSpace=wrap;html=1;rounded=1;fillColor=#dae8fc;strokeColor=#6c8ebf;fontSize=20;" parent="1" vertex="1">
          <mxGeometry x="-821" y="298" width="200" height="90" as="geometry" />
        </mxCell>
        <mxCell id="8Dii8_jfuBK2aN7Jaqxq-14" value="&lt;font style=&quot;font-size: 18px;&quot;&gt;sls_prd_key&lt;/font&gt;" style="text;align=left;verticalAlign=middle;spacingLeft=4;spacingRight=4;overflow=hidden;points=[[0,0.5],[1,0.5]];portConstraint=eastwest;rotatable=0;whiteSpace=wrap;html=1;rounded=1;fontSize=20;" parent="8Dii8_jfuBK2aN7Jaqxq-13" vertex="1">
          <mxGeometry y="30" width="200" height="30" as="geometry" />
        </mxCell>
        <mxCell id="8Dii8_jfuBK2aN7Jaqxq-24" value="&lt;font style=&quot;font-size: 18px;&quot;&gt;sls_cust_id&lt;/font&gt;" style="text;align=left;verticalAlign=middle;spacingLeft=4;spacingRight=4;overflow=hidden;points=[[0,0.5],[1,0.5]];portConstraint=eastwest;rotatable=0;whiteSpace=wrap;html=1;rounded=1;fontSize=20;" parent="8Dii8_jfuBK2aN7Jaqxq-13" vertex="1">
          <mxGeometry y="60" width="200" height="30" as="geometry" />
        </mxCell>
        <mxCell id="8Dii8_jfuBK2aN7Jaqxq-15" value="&lt;span style=&quot;font-size: 18px;&quot;&gt;Transational Records about sales and orders&lt;/span&gt;" style="text;html=1;align=center;verticalAlign=middle;whiteSpace=wrap;rounded=0;" parent="1" vertex="1">
          <mxGeometry x="-843" y="263" width="244" height="30" as="geometry" />
        </mxCell>
        <mxCell id="8Dii8_jfuBK2aN7Jaqxq-27" style="edgeStyle=orthogonalEdgeStyle;orthogonalLoop=1;jettySize=auto;html=1;exitX=1;exitY=0.5;exitDx=0;exitDy=0;entryX=0;entryY=0.5;entryDx=0;entryDy=0;" parent="1" source="8Dii8_jfuBK2aN7Jaqxq-14" target="8Dii8_jfuBK2aN7Jaqxq-11" edge="1">
          <mxGeometry relative="1" as="geometry" />
        </mxCell>
        <mxCell id="8Dii8_jfuBK2aN7Jaqxq-28" style="edgeStyle=orthogonalEdgeStyle;orthogonalLoop=1;jettySize=auto;html=1;exitX=1;exitY=0.5;exitDx=0;exitDy=0;entryX=0;entryY=0.5;entryDx=0;entryDy=0;" parent="1" source="8Dii8_jfuBK2aN7Jaqxq-24" target="8Dii8_jfuBK2aN7Jaqxq-4" edge="1">
          <mxGeometry relative="1" as="geometry" />
        </mxCell>
        <mxCell id="8Dii8_jfuBK2aN7Jaqxq-29" value="&lt;span style=&quot;font-size: 18px;&quot;&gt;Exact customer information (Birth date)&lt;/span&gt;" style="text;html=1;align=center;verticalAlign=middle;whiteSpace=wrap;rounded=0;" parent="1" vertex="1">
          <mxGeometry x="-290" y="373" width="251" height="18" as="geometry" />
        </mxCell>
        <mxCell id="8Dii8_jfuBK2aN7Jaqxq-30" value="&lt;span style=&quot;font-size: 18px;&quot;&gt;erp_cust_az12&lt;/span&gt;" style="swimlane;fontStyle=0;childLayout=stackLayout;horizontal=1;startSize=30;horizontalStack=0;resizeParent=1;resizeParentMax=0;resizeLast=0;collapsible=1;marginBottom=0;whiteSpace=wrap;html=1;rounded=1;fillColor=#fff2cc;strokeColor=#d6b656;fontSize=20;gradientColor=#ffd966;" parent="1" vertex="1">
          <mxGeometry x="-265" y="408" width="200" height="60" as="geometry" />
        </mxCell>
        <mxCell id="8Dii8_jfuBK2aN7Jaqxq-31" value="&lt;font style=&quot;font-size: 18px;&quot;&gt;cid&lt;/font&gt;" style="text;align=left;verticalAlign=middle;spacingLeft=4;spacingRight=4;overflow=hidden;points=[[0,0.5],[1,0.5]];portConstraint=eastwest;rotatable=0;whiteSpace=wrap;html=1;rounded=1;fontSize=20;" parent="8Dii8_jfuBK2aN7Jaqxq-30" vertex="1">
          <mxGeometry y="30" width="200" height="30" as="geometry" />
        </mxCell>
        <mxCell id="8Dii8_jfuBK2aN7Jaqxq-37" value="&lt;span style=&quot;font-size: 18px;&quot;&gt;Location of customers (Country)&lt;/span&gt;" style="text;html=1;align=center;verticalAlign=middle;whiteSpace=wrap;rounded=0;" parent="1" vertex="1">
          <mxGeometry x="-290" y="510" width="269" height="30" as="geometry" />
        </mxCell>
        <mxCell id="8Dii8_jfuBK2aN7Jaqxq-38" value="&lt;span style=&quot;font-size: 18px;&quot;&gt;erp_loc_a101&lt;/span&gt;" style="swimlane;fontStyle=0;childLayout=stackLayout;horizontal=1;startSize=30;horizontalStack=0;resizeParent=1;resizeParentMax=0;resizeLast=0;collapsible=1;marginBottom=0;whiteSpace=wrap;html=1;rounded=1;fillColor=#fff2cc;strokeColor=#d6b656;fontSize=20;gradientColor=#ffd966;" parent="1" vertex="1">
          <mxGeometry x="-265" y="538" width="200" height="60" as="geometry" />
        </mxCell>
        <mxCell id="8Dii8_jfuBK2aN7Jaqxq-39" value="&lt;font style=&quot;font-size: 18px;&quot;&gt;cid&lt;/font&gt;" style="text;align=left;verticalAlign=middle;spacingLeft=4;spacingRight=4;overflow=hidden;points=[[0,0.5],[1,0.5]];portConstraint=eastwest;rotatable=0;whiteSpace=wrap;html=1;rounded=1;fontSize=20;" parent="8Dii8_jfuBK2aN7Jaqxq-38" vertex="1">
          <mxGeometry y="30" width="200" height="30" as="geometry" />
        </mxCell>
        <mxCell id="8Dii8_jfuBK2aN7Jaqxq-43" value="&lt;span style=&quot;font-size: 18px;&quot;&gt;Product Categories&lt;/span&gt;" style="text;html=1;align=center;verticalAlign=middle;whiteSpace=wrap;rounded=0;" parent="1" vertex="1">
          <mxGeometry x="-293" y="239" width="251" height="18" as="geometry" />
        </mxCell>
        <mxCell id="8Dii8_jfuBK2aN7Jaqxq-44" value="&lt;span style=&quot;font-size: 18px;&quot;&gt;erp_px_cat_g1v2&lt;/span&gt;" style="swimlane;fontStyle=0;childLayout=stackLayout;horizontal=1;startSize=30;horizontalStack=0;resizeParent=1;resizeParentMax=0;resizeLast=0;collapsible=1;marginBottom=0;whiteSpace=wrap;html=1;rounded=1;fillColor=#fff2cc;strokeColor=#d6b656;fontSize=20;gradientColor=#ffd966;" parent="1" vertex="1">
          <mxGeometry x="-266" y="259" width="200" height="60" as="geometry" />
        </mxCell>
        <mxCell id="8Dii8_jfuBK2aN7Jaqxq-45" value="&lt;font style=&quot;font-size: 18px;&quot;&gt;id&lt;/font&gt;" style="text;align=left;verticalAlign=middle;spacingLeft=4;spacingRight=4;overflow=hidden;points=[[0,0.5],[1,0.5]];portConstraint=eastwest;rotatable=0;whiteSpace=wrap;html=1;rounded=1;fontSize=20;" parent="8Dii8_jfuBK2aN7Jaqxq-44" vertex="1">
          <mxGeometry y="30" width="200" height="30" as="geometry" />
        </mxCell>
        <mxCell id="8Dii8_jfuBK2aN7Jaqxq-52" value="" style="rounded=1;whiteSpace=wrap;html=1;fillColor=none;dashed=1;" parent="1" vertex="1">
          <mxGeometry x="-834" y="160" width="500" height="480" as="geometry" />
        </mxCell>
        <mxCell id="8Dii8_jfuBK2aN7Jaqxq-55" value="Text" style="text;html=1;align=center;verticalAlign=middle;whiteSpace=wrap;rounded=0;" parent="1" vertex="1">
          <mxGeometry x="-464" y="240" width="60" height="30" as="geometry" />
        </mxCell>
        <mxCell id="8Dii8_jfuBK2aN7Jaqxq-56" value="&lt;font style=&quot;font-size: 24px;&quot;&gt;CRM&lt;/font&gt;" style="text;html=1;align=center;verticalAlign=middle;resizable=0;points=[];autosize=1;strokeColor=#6c8ebf;fillColor=#dae8fc;gradientColor=#7ea6e0;" parent="1" vertex="1">
          <mxGeometry x="-619" y="119" width="80" height="40" as="geometry" />
        </mxCell>
        <mxCell id="8Dii8_jfuBK2aN7Jaqxq-58" value="&lt;font style=&quot;font-size: 24px;&quot;&gt;ERP&lt;/font&gt;" style="text;html=1;align=center;verticalAlign=middle;resizable=0;points=[];autosize=1;strokeColor=#d6b656;fillColor=#fff2cc;gradientColor=#ffd966;" parent="1" vertex="1">
          <mxGeometry x="-199" y="119" width="70" height="40" as="geometry" />
        </mxCell>
        <mxCell id="8Dii8_jfuBK2aN7Jaqxq-59" value="" style="rounded=1;whiteSpace=wrap;html=1;fillColor=none;dashed=1;" parent="1" vertex="1">
          <mxGeometry x="-293" y="159" width="279" height="481" as="geometry" />
        </mxCell>
        <mxCell id="9rHJfMoVtCi5EVTKdoJ8-1" value="Product" style="text;html=1;strokeColor=#b85450;fillColor=#f8cecc;align=center;verticalAlign=middle;whiteSpace=wrap;overflow=hidden;fontSize=18;" vertex="1" parent="1">
          <mxGeometry x="-572" y="299" width="194" height="20" as="geometry" />
        </mxCell>
        <mxCell id="-UtsLNEFVQqYbFp1SXaA-1" value="Product" style="text;html=1;strokeColor=#b85450;fillColor=#f8cecc;align=center;verticalAlign=middle;whiteSpace=wrap;overflow=hidden;fontSize=18;" vertex="1" parent="1">
          <mxGeometry x="-262" y="319" width="194" height="20" as="geometry" />
        </mxCell>
        <mxCell id="-UtsLNEFVQqYbFp1SXaA-2" value="Customer" style="text;html=1;strokeColor=#82b366;fillColor=#d5e8d4;align=center;verticalAlign=middle;whiteSpace=wrap;overflow=hidden;fontSize=18;" vertex="1" parent="1">
          <mxGeometry x="-572" y="468" width="194" height="20" as="geometry" />
        </mxCell>
        <mxCell id="-UtsLNEFVQqYbFp1SXaA-3" value="Customer" style="text;html=1;strokeColor=#82b366;fillColor=#d5e8d4;align=center;verticalAlign=middle;whiteSpace=wrap;overflow=hidden;fontSize=18;" vertex="1" parent="1">
          <mxGeometry x="-261.5" y="468" width="194" height="20" as="geometry" />
        </mxCell>
        <mxCell id="-UtsLNEFVQqYbFp1SXaA-4" value="Customer" style="text;html=1;strokeColor=#82b366;fillColor=#d5e8d4;align=center;verticalAlign=middle;whiteSpace=wrap;overflow=hidden;fontSize=18;" vertex="1" parent="1">
          <mxGeometry x="-259" y="598" width="194" height="20" as="geometry" />
        </mxCell>
        <mxCell id="-UtsLNEFVQqYbFp1SXaA-5" value="Sales" style="text;html=1;strokeColor=#9673a6;fillColor=#e1d5e7;align=center;verticalAlign=middle;whiteSpace=wrap;overflow=hidden;fontSize=18;" vertex="1" parent="1">
          <mxGeometry x="-818" y="388" width="194" height="20" as="geometry" />
        </mxCell>
        <mxCell id="PYTg53mQJ2tmh_P4G08y-2" value="" style="endArrow=classic;html=1;rounded=0;entryX=0.928;entryY=0.25;entryDx=0;entryDy=0;entryPerimeter=0;exitX=0.082;exitY=0.293;exitDx=0;exitDy=0;exitPerimeter=0;" edge="1" parent="1" source="8Dii8_jfuBK2aN7Jaqxq-59" target="8Dii8_jfuBK2aN7Jaqxq-52">
          <mxGeometry width="50" height="50" relative="1" as="geometry">
            <mxPoint x="-450" y="400" as="sourcePoint" />
            <mxPoint x="-400" y="350" as="targetPoint" />
          </mxGeometry>
        </mxCell>
        <mxCell id="PYTg53mQJ2tmh_P4G08y-5" value="" style="endArrow=classic;html=1;rounded=0;exitX=0.118;exitY=0.896;exitDx=0;exitDy=0;exitPerimeter=0;" edge="1" parent="1" source="8Dii8_jfuBK2aN7Jaqxq-59">
          <mxGeometry width="50" height="50" relative="1" as="geometry">
            <mxPoint x="-424" y="500" as="sourcePoint" />
            <mxPoint x="-374" y="450" as="targetPoint" />
          </mxGeometry>
        </mxCell>
        <mxCell id="PYTg53mQJ2tmh_P4G08y-6" value="" style="endArrow=classic;html=1;rounded=0;exitX=0;exitY=0;exitDx=0;exitDy=0;" edge="1" parent="1">
          <mxGeometry width="50" height="50" relative="1" as="geometry">
            <mxPoint x="-267" y="458" as="sourcePoint" />
            <mxPoint x="-380" y="440" as="targetPoint" />
          </mxGeometry>
        </mxCell>
      </root>
    </mxGraphModel>
  </diagram>
  <diagram id="rVqWRhRp-pQCVLGbJ7Wx" name="Page-3">
    <mxGraphModel dx="1042" dy="634" grid="1" gridSize="10" guides="1" tooltips="1" connect="1" arrows="1" fold="1" page="1" pageScale="1" pageWidth="850" pageHeight="1100" math="0" shadow="0">
      <root>
        <mxCell id="0" />
        <mxCell id="1" parent="0" />
        <mxCell id="QJzJKz0_dobVJu3b7yC2-14" value="&lt;span style=&quot;font-size: 20px; background-color: rgb(255, 255, 255);&quot;&gt;&lt;b&gt;Data Model (Star Schema)&lt;/b&gt;&lt;/span&gt;" style="text;html=1;align=center;verticalAlign=middle;resizable=0;points=[];autosize=1;strokeColor=none;fillColor=none;" vertex="1" parent="1">
          <mxGeometry x="270" y="23" width="270" height="40" as="geometry" />
        </mxCell>
        <mxCell id="QJzJKz0_dobVJu3b7yC2-15" value="gold.dim_customers" style="shape=table;startSize=30;container=1;collapsible=0;childLayout=tableLayout;fixedRows=1;rowLines=0;fontStyle=0;strokeColor=#777777;fontSize=16;fillColor=#ffff88;gradientColor=#E6E6E6;" vertex="1" parent="1">
          <mxGeometry x="50" y="120" width="180" height="300" as="geometry" />
        </mxCell>
        <mxCell id="QJzJKz0_dobVJu3b7yC2-16" value="" style="shape=tableRow;horizontal=0;startSize=0;swimlaneHead=0;swimlaneBody=0;top=0;left=0;bottom=0;right=0;collapsible=0;dropTarget=0;fillColor=none;points=[[0,0.5],[1,0.5]];portConstraint=eastwest;strokeColor=inherit;fontSize=16;" vertex="1" parent="QJzJKz0_dobVJu3b7yC2-15">
          <mxGeometry y="30" width="180" height="30" as="geometry" />
        </mxCell>
        <mxCell id="QJzJKz0_dobVJu3b7yC2-17" value="PK" style="shape=partialRectangle;html=1;whiteSpace=wrap;connectable=0;fillColor=default;top=0;left=0;bottom=0;right=0;overflow=hidden;pointerEvents=1;strokeColor=inherit;fontSize=16;gradientColor=#E6E6E6;" vertex="1" parent="QJzJKz0_dobVJu3b7yC2-16">
          <mxGeometry width="40" height="30" as="geometry">
            <mxRectangle width="40" height="30" as="alternateBounds" />
          </mxGeometry>
        </mxCell>
        <mxCell id="QJzJKz0_dobVJu3b7yC2-18" value="customer_key" style="shape=partialRectangle;html=1;whiteSpace=wrap;connectable=0;fillColor=default;top=0;left=0;bottom=0;right=0;align=left;spacingLeft=6;overflow=hidden;strokeColor=inherit;fontSize=16;gradientColor=#E6E6E6;" vertex="1" parent="QJzJKz0_dobVJu3b7yC2-16">
          <mxGeometry x="40" width="140" height="30" as="geometry">
            <mxRectangle width="140" height="30" as="alternateBounds" />
          </mxGeometry>
        </mxCell>
        <mxCell id="QJzJKz0_dobVJu3b7yC2-19" value="" style="shape=tableRow;horizontal=0;startSize=0;swimlaneHead=0;swimlaneBody=0;top=0;left=0;bottom=0;right=0;collapsible=0;dropTarget=0;fillColor=none;points=[[0,0.5],[1,0.5]];portConstraint=eastwest;strokeColor=inherit;fontSize=16;" vertex="1" parent="QJzJKz0_dobVJu3b7yC2-15">
          <mxGeometry y="60" width="180" height="30" as="geometry" />
        </mxCell>
        <mxCell id="QJzJKz0_dobVJu3b7yC2-20" value="" style="shape=partialRectangle;html=1;whiteSpace=wrap;connectable=0;fillColor=none;top=0;left=0;bottom=0;right=0;overflow=hidden;strokeColor=inherit;fontSize=16;" vertex="1" parent="QJzJKz0_dobVJu3b7yC2-19">
          <mxGeometry width="40" height="30" as="geometry">
            <mxRectangle width="40" height="30" as="alternateBounds" />
          </mxGeometry>
        </mxCell>
        <mxCell id="QJzJKz0_dobVJu3b7yC2-21" value="customer_id" style="shape=partialRectangle;html=1;whiteSpace=wrap;connectable=0;fillColor=none;top=0;left=0;bottom=0;right=0;align=left;spacingLeft=6;overflow=hidden;strokeColor=inherit;fontSize=16;" vertex="1" parent="QJzJKz0_dobVJu3b7yC2-19">
          <mxGeometry x="40" width="140" height="30" as="geometry">
            <mxRectangle width="140" height="30" as="alternateBounds" />
          </mxGeometry>
        </mxCell>
        <mxCell id="QJzJKz0_dobVJu3b7yC2-22" value="" style="shape=tableRow;horizontal=0;startSize=0;swimlaneHead=0;swimlaneBody=0;top=0;left=0;bottom=0;right=0;collapsible=0;dropTarget=0;fillColor=none;points=[[0,0.5],[1,0.5]];portConstraint=eastwest;strokeColor=inherit;fontSize=16;" vertex="1" parent="QJzJKz0_dobVJu3b7yC2-15">
          <mxGeometry y="90" width="180" height="30" as="geometry" />
        </mxCell>
        <mxCell id="QJzJKz0_dobVJu3b7yC2-23" value="" style="shape=partialRectangle;html=1;whiteSpace=wrap;connectable=0;fillColor=none;top=0;left=0;bottom=0;right=0;overflow=hidden;strokeColor=inherit;fontSize=16;" vertex="1" parent="QJzJKz0_dobVJu3b7yC2-22">
          <mxGeometry width="40" height="30" as="geometry">
            <mxRectangle width="40" height="30" as="alternateBounds" />
          </mxGeometry>
        </mxCell>
        <mxCell id="QJzJKz0_dobVJu3b7yC2-24" value="customer_number" style="shape=partialRectangle;html=1;whiteSpace=wrap;connectable=0;fillColor=none;top=0;left=0;bottom=0;right=0;align=left;spacingLeft=6;overflow=hidden;strokeColor=inherit;fontSize=16;" vertex="1" parent="QJzJKz0_dobVJu3b7yC2-22">
          <mxGeometry x="40" width="140" height="30" as="geometry">
            <mxRectangle width="140" height="30" as="alternateBounds" />
          </mxGeometry>
        </mxCell>
        <mxCell id="QJzJKz0_dobVJu3b7yC2-25" value="" style="shape=tableRow;horizontal=0;startSize=0;swimlaneHead=0;swimlaneBody=0;top=0;left=0;bottom=0;right=0;collapsible=0;dropTarget=0;fillColor=none;points=[[0,0.5],[1,0.5]];portConstraint=eastwest;strokeColor=inherit;fontSize=16;" vertex="1" parent="QJzJKz0_dobVJu3b7yC2-15">
          <mxGeometry y="120" width="180" height="30" as="geometry" />
        </mxCell>
        <mxCell id="QJzJKz0_dobVJu3b7yC2-26" value="" style="shape=partialRectangle;html=1;whiteSpace=wrap;connectable=0;fillColor=none;top=0;left=0;bottom=0;right=0;overflow=hidden;strokeColor=inherit;fontSize=16;" vertex="1" parent="QJzJKz0_dobVJu3b7yC2-25">
          <mxGeometry width="40" height="30" as="geometry">
            <mxRectangle width="40" height="30" as="alternateBounds" />
          </mxGeometry>
        </mxCell>
        <mxCell id="QJzJKz0_dobVJu3b7yC2-27" value="first_name" style="shape=partialRectangle;html=1;whiteSpace=wrap;connectable=0;fillColor=none;top=0;left=0;bottom=0;right=0;align=left;spacingLeft=6;overflow=hidden;strokeColor=inherit;fontSize=16;" vertex="1" parent="QJzJKz0_dobVJu3b7yC2-25">
          <mxGeometry x="40" width="140" height="30" as="geometry">
            <mxRectangle width="140" height="30" as="alternateBounds" />
          </mxGeometry>
        </mxCell>
        <mxCell id="QJzJKz0_dobVJu3b7yC2-28" value="" style="shape=tableRow;horizontal=0;startSize=0;swimlaneHead=0;swimlaneBody=0;top=0;left=0;bottom=0;right=0;collapsible=0;dropTarget=0;fillColor=none;points=[[0,0.5],[1,0.5]];portConstraint=eastwest;strokeColor=inherit;fontSize=16;" vertex="1" parent="QJzJKz0_dobVJu3b7yC2-15">
          <mxGeometry y="150" width="180" height="30" as="geometry" />
        </mxCell>
        <mxCell id="QJzJKz0_dobVJu3b7yC2-29" value="" style="shape=partialRectangle;html=1;whiteSpace=wrap;connectable=0;fillColor=none;top=0;left=0;bottom=0;right=0;overflow=hidden;strokeColor=inherit;fontSize=16;" vertex="1" parent="QJzJKz0_dobVJu3b7yC2-28">
          <mxGeometry width="40" height="30" as="geometry">
            <mxRectangle width="40" height="30" as="alternateBounds" />
          </mxGeometry>
        </mxCell>
        <mxCell id="QJzJKz0_dobVJu3b7yC2-30" value="last_name" style="shape=partialRectangle;html=1;whiteSpace=wrap;connectable=0;fillColor=none;top=0;left=0;bottom=0;right=0;align=left;spacingLeft=6;overflow=hidden;strokeColor=inherit;fontSize=16;" vertex="1" parent="QJzJKz0_dobVJu3b7yC2-28">
          <mxGeometry x="40" width="140" height="30" as="geometry">
            <mxRectangle width="140" height="30" as="alternateBounds" />
          </mxGeometry>
        </mxCell>
        <mxCell id="QJzJKz0_dobVJu3b7yC2-31" value="" style="shape=tableRow;horizontal=0;startSize=0;swimlaneHead=0;swimlaneBody=0;top=0;left=0;bottom=0;right=0;collapsible=0;dropTarget=0;fillColor=none;points=[[0,0.5],[1,0.5]];portConstraint=eastwest;strokeColor=inherit;fontSize=16;" vertex="1" parent="QJzJKz0_dobVJu3b7yC2-15">
          <mxGeometry y="180" width="180" height="30" as="geometry" />
        </mxCell>
        <mxCell id="QJzJKz0_dobVJu3b7yC2-32" value="" style="shape=partialRectangle;html=1;whiteSpace=wrap;connectable=0;fillColor=none;top=0;left=0;bottom=0;right=0;overflow=hidden;strokeColor=inherit;fontSize=16;" vertex="1" parent="QJzJKz0_dobVJu3b7yC2-31">
          <mxGeometry width="40" height="30" as="geometry">
            <mxRectangle width="40" height="30" as="alternateBounds" />
          </mxGeometry>
        </mxCell>
        <mxCell id="QJzJKz0_dobVJu3b7yC2-33" value="country" style="shape=partialRectangle;html=1;whiteSpace=wrap;connectable=0;fillColor=none;top=0;left=0;bottom=0;right=0;align=left;spacingLeft=6;overflow=hidden;strokeColor=inherit;fontSize=16;" vertex="1" parent="QJzJKz0_dobVJu3b7yC2-31">
          <mxGeometry x="40" width="140" height="30" as="geometry">
            <mxRectangle width="140" height="30" as="alternateBounds" />
          </mxGeometry>
        </mxCell>
        <mxCell id="QJzJKz0_dobVJu3b7yC2-34" value="" style="shape=tableRow;horizontal=0;startSize=0;swimlaneHead=0;swimlaneBody=0;top=0;left=0;bottom=0;right=0;collapsible=0;dropTarget=0;fillColor=none;points=[[0,0.5],[1,0.5]];portConstraint=eastwest;strokeColor=inherit;fontSize=16;" vertex="1" parent="QJzJKz0_dobVJu3b7yC2-15">
          <mxGeometry y="210" width="180" height="30" as="geometry" />
        </mxCell>
        <mxCell id="QJzJKz0_dobVJu3b7yC2-35" value="" style="shape=partialRectangle;html=1;whiteSpace=wrap;connectable=0;fillColor=none;top=0;left=0;bottom=0;right=0;overflow=hidden;strokeColor=inherit;fontSize=16;" vertex="1" parent="QJzJKz0_dobVJu3b7yC2-34">
          <mxGeometry width="40" height="30" as="geometry">
            <mxRectangle width="40" height="30" as="alternateBounds" />
          </mxGeometry>
        </mxCell>
        <mxCell id="QJzJKz0_dobVJu3b7yC2-36" value="marital_status" style="shape=partialRectangle;html=1;whiteSpace=wrap;connectable=0;fillColor=none;top=0;left=0;bottom=0;right=0;align=left;spacingLeft=6;overflow=hidden;strokeColor=inherit;fontSize=16;" vertex="1" parent="QJzJKz0_dobVJu3b7yC2-34">
          <mxGeometry x="40" width="140" height="30" as="geometry">
            <mxRectangle width="140" height="30" as="alternateBounds" />
          </mxGeometry>
        </mxCell>
        <mxCell id="QJzJKz0_dobVJu3b7yC2-37" value="" style="shape=tableRow;horizontal=0;startSize=0;swimlaneHead=0;swimlaneBody=0;top=0;left=0;bottom=0;right=0;collapsible=0;dropTarget=0;fillColor=none;points=[[0,0.5],[1,0.5]];portConstraint=eastwest;strokeColor=inherit;fontSize=16;" vertex="1" parent="QJzJKz0_dobVJu3b7yC2-15">
          <mxGeometry y="240" width="180" height="30" as="geometry" />
        </mxCell>
        <mxCell id="QJzJKz0_dobVJu3b7yC2-38" value="" style="shape=partialRectangle;html=1;whiteSpace=wrap;connectable=0;fillColor=none;top=0;left=0;bottom=0;right=0;overflow=hidden;strokeColor=inherit;fontSize=16;" vertex="1" parent="QJzJKz0_dobVJu3b7yC2-37">
          <mxGeometry width="40" height="30" as="geometry">
            <mxRectangle width="40" height="30" as="alternateBounds" />
          </mxGeometry>
        </mxCell>
        <mxCell id="QJzJKz0_dobVJu3b7yC2-39" value="gender" style="shape=partialRectangle;html=1;whiteSpace=wrap;connectable=0;fillColor=none;top=0;left=0;bottom=0;right=0;align=left;spacingLeft=6;overflow=hidden;strokeColor=inherit;fontSize=16;" vertex="1" parent="QJzJKz0_dobVJu3b7yC2-37">
          <mxGeometry x="40" width="140" height="30" as="geometry">
            <mxRectangle width="140" height="30" as="alternateBounds" />
          </mxGeometry>
        </mxCell>
        <mxCell id="QJzJKz0_dobVJu3b7yC2-40" value="" style="shape=tableRow;horizontal=0;startSize=0;swimlaneHead=0;swimlaneBody=0;top=0;left=0;bottom=0;right=0;collapsible=0;dropTarget=0;fillColor=none;points=[[0,0.5],[1,0.5]];portConstraint=eastwest;strokeColor=inherit;fontSize=16;" vertex="1" parent="QJzJKz0_dobVJu3b7yC2-15">
          <mxGeometry y="270" width="180" height="30" as="geometry" />
        </mxCell>
        <mxCell id="QJzJKz0_dobVJu3b7yC2-41" value="" style="shape=partialRectangle;html=1;whiteSpace=wrap;connectable=0;fillColor=none;top=0;left=0;bottom=0;right=0;overflow=hidden;strokeColor=inherit;fontSize=16;" vertex="1" parent="QJzJKz0_dobVJu3b7yC2-40">
          <mxGeometry width="40" height="30" as="geometry">
            <mxRectangle width="40" height="30" as="alternateBounds" />
          </mxGeometry>
        </mxCell>
        <mxCell id="QJzJKz0_dobVJu3b7yC2-42" value="birthdate" style="shape=partialRectangle;html=1;whiteSpace=wrap;connectable=0;fillColor=none;top=0;left=0;bottom=0;right=0;align=left;spacingLeft=6;overflow=hidden;strokeColor=inherit;fontSize=16;" vertex="1" parent="QJzJKz0_dobVJu3b7yC2-40">
          <mxGeometry x="40" width="140" height="30" as="geometry">
            <mxRectangle width="140" height="30" as="alternateBounds" />
          </mxGeometry>
        </mxCell>
        <mxCell id="QJzJKz0_dobVJu3b7yC2-50" value="" style="shape=link;html=1;rounded=0;exitX=0.007;exitY=0.013;exitDx=0;exitDy=0;exitPerimeter=0;entryX=0.993;entryY=0.04;entryDx=0;entryDy=0;entryPerimeter=0;" edge="1" parent="QJzJKz0_dobVJu3b7yC2-15" source="QJzJKz0_dobVJu3b7yC2-19" target="QJzJKz0_dobVJu3b7yC2-19">
          <mxGeometry width="100" relative="1" as="geometry">
            <mxPoint x="40" y="60" as="sourcePoint" />
            <mxPoint x="140" y="60" as="targetPoint" />
          </mxGeometry>
        </mxCell>
        <mxCell id="fQbAlz2_fIN0ou2b1Kk_-15" value="gold.fact_sales" style="shape=table;startSize=30;container=1;collapsible=0;childLayout=tableLayout;fixedRows=1;rowLines=0;fontStyle=0;strokeColor=#36393d;fontSize=16;fillColor=#cce5ff;" vertex="1" parent="1">
          <mxGeometry x="335" y="120" width="180" height="300" as="geometry" />
        </mxCell>
        <mxCell id="fQbAlz2_fIN0ou2b1Kk_-19" value="" style="shape=tableRow;horizontal=0;startSize=0;swimlaneHead=0;swimlaneBody=0;top=0;left=0;bottom=0;right=0;collapsible=0;dropTarget=0;fillColor=none;points=[[0,0.5],[1,0.5]];portConstraint=eastwest;strokeColor=inherit;fontSize=16;" vertex="1" parent="fQbAlz2_fIN0ou2b1Kk_-15">
          <mxGeometry y="30" width="180" height="30" as="geometry" />
        </mxCell>
        <mxCell id="fQbAlz2_fIN0ou2b1Kk_-20" value="" style="shape=partialRectangle;html=1;whiteSpace=wrap;connectable=0;fillColor=none;top=0;left=0;bottom=0;right=0;overflow=hidden;strokeColor=inherit;fontSize=16;" vertex="1" parent="fQbAlz2_fIN0ou2b1Kk_-19">
          <mxGeometry width="40" height="30" as="geometry">
            <mxRectangle width="40" height="30" as="alternateBounds" />
          </mxGeometry>
        </mxCell>
        <mxCell id="fQbAlz2_fIN0ou2b1Kk_-21" value="order _number" style="shape=partialRectangle;html=1;whiteSpace=wrap;connectable=0;fillColor=none;top=0;left=0;bottom=0;right=0;align=left;spacingLeft=6;overflow=hidden;strokeColor=inherit;fontSize=16;" vertex="1" parent="fQbAlz2_fIN0ou2b1Kk_-19">
          <mxGeometry x="40" width="140" height="30" as="geometry">
            <mxRectangle width="140" height="30" as="alternateBounds" />
          </mxGeometry>
        </mxCell>
        <mxCell id="fQbAlz2_fIN0ou2b1Kk_-22" value="" style="shape=tableRow;horizontal=0;startSize=0;swimlaneHead=0;swimlaneBody=0;top=0;left=0;bottom=0;right=0;collapsible=0;dropTarget=0;fillColor=none;points=[[0,0.5],[1,0.5]];portConstraint=eastwest;strokeColor=inherit;fontSize=16;" vertex="1" parent="fQbAlz2_fIN0ou2b1Kk_-15">
          <mxGeometry y="60" width="180" height="30" as="geometry" />
        </mxCell>
        <mxCell id="fQbAlz2_fIN0ou2b1Kk_-23" value="FK1" style="shape=partialRectangle;html=1;whiteSpace=wrap;connectable=0;fillColor=default;top=0;left=0;bottom=0;right=0;overflow=hidden;strokeColor=inherit;fontSize=16;gradientColor=#E6E6E6;" vertex="1" parent="fQbAlz2_fIN0ou2b1Kk_-22">
          <mxGeometry width="40" height="30" as="geometry">
            <mxRectangle width="40" height="30" as="alternateBounds" />
          </mxGeometry>
        </mxCell>
        <mxCell id="fQbAlz2_fIN0ou2b1Kk_-24" value="product_key" style="shape=partialRectangle;html=1;whiteSpace=wrap;connectable=0;fillColor=default;top=0;left=0;bottom=0;right=0;align=left;spacingLeft=6;overflow=hidden;strokeColor=inherit;fontSize=16;gradientColor=#E6E6E6;" vertex="1" parent="fQbAlz2_fIN0ou2b1Kk_-22">
          <mxGeometry x="40" width="140" height="30" as="geometry">
            <mxRectangle width="140" height="30" as="alternateBounds" />
          </mxGeometry>
        </mxCell>
        <mxCell id="fQbAlz2_fIN0ou2b1Kk_-25" value="" style="shape=tableRow;horizontal=0;startSize=0;swimlaneHead=0;swimlaneBody=0;top=0;left=0;bottom=0;right=0;collapsible=0;dropTarget=0;fillColor=none;points=[[0,0.5],[1,0.5]];portConstraint=eastwest;strokeColor=inherit;fontSize=16;" vertex="1" parent="fQbAlz2_fIN0ou2b1Kk_-15">
          <mxGeometry y="90" width="180" height="30" as="geometry" />
        </mxCell>
        <mxCell id="fQbAlz2_fIN0ou2b1Kk_-26" value="FK2" style="shape=partialRectangle;html=1;whiteSpace=wrap;connectable=0;fillColor=default;top=0;left=0;bottom=0;right=0;overflow=hidden;strokeColor=inherit;fontSize=16;gradientColor=#E6E6E6;" vertex="1" parent="fQbAlz2_fIN0ou2b1Kk_-25">
          <mxGeometry width="40" height="30" as="geometry">
            <mxRectangle width="40" height="30" as="alternateBounds" />
          </mxGeometry>
        </mxCell>
        <mxCell id="fQbAlz2_fIN0ou2b1Kk_-27" value="customer_key" style="shape=partialRectangle;html=1;whiteSpace=wrap;connectable=0;fillColor=default;top=0;left=0;bottom=0;right=0;align=left;spacingLeft=6;overflow=hidden;strokeColor=inherit;fontSize=16;gradientColor=#E6E6E6;" vertex="1" parent="fQbAlz2_fIN0ou2b1Kk_-25">
          <mxGeometry x="40" width="140" height="30" as="geometry">
            <mxRectangle width="140" height="30" as="alternateBounds" />
          </mxGeometry>
        </mxCell>
        <mxCell id="fQbAlz2_fIN0ou2b1Kk_-28" value="" style="shape=tableRow;horizontal=0;startSize=0;swimlaneHead=0;swimlaneBody=0;top=0;left=0;bottom=0;right=0;collapsible=0;dropTarget=0;fillColor=none;points=[[0,0.5],[1,0.5]];portConstraint=eastwest;strokeColor=inherit;fontSize=16;" vertex="1" parent="fQbAlz2_fIN0ou2b1Kk_-15">
          <mxGeometry y="120" width="180" height="30" as="geometry" />
        </mxCell>
        <mxCell id="fQbAlz2_fIN0ou2b1Kk_-29" value="" style="shape=partialRectangle;html=1;whiteSpace=wrap;connectable=0;fillColor=none;top=0;left=0;bottom=0;right=0;overflow=hidden;strokeColor=inherit;fontSize=16;" vertex="1" parent="fQbAlz2_fIN0ou2b1Kk_-28">
          <mxGeometry width="40" height="30" as="geometry">
            <mxRectangle width="40" height="30" as="alternateBounds" />
          </mxGeometry>
        </mxCell>
        <mxCell id="fQbAlz2_fIN0ou2b1Kk_-30" value="order_date" style="shape=partialRectangle;html=1;whiteSpace=wrap;connectable=0;fillColor=none;top=0;left=0;bottom=0;right=0;align=left;spacingLeft=6;overflow=hidden;strokeColor=inherit;fontSize=16;" vertex="1" parent="fQbAlz2_fIN0ou2b1Kk_-28">
          <mxGeometry x="40" width="140" height="30" as="geometry">
            <mxRectangle width="140" height="30" as="alternateBounds" />
          </mxGeometry>
        </mxCell>
        <mxCell id="fQbAlz2_fIN0ou2b1Kk_-31" value="" style="shape=tableRow;horizontal=0;startSize=0;swimlaneHead=0;swimlaneBody=0;top=0;left=0;bottom=0;right=0;collapsible=0;dropTarget=0;fillColor=none;points=[[0,0.5],[1,0.5]];portConstraint=eastwest;strokeColor=inherit;fontSize=16;" vertex="1" parent="fQbAlz2_fIN0ou2b1Kk_-15">
          <mxGeometry y="150" width="180" height="30" as="geometry" />
        </mxCell>
        <mxCell id="fQbAlz2_fIN0ou2b1Kk_-32" value="" style="shape=partialRectangle;html=1;whiteSpace=wrap;connectable=0;fillColor=none;top=0;left=0;bottom=0;right=0;overflow=hidden;strokeColor=inherit;fontSize=16;" vertex="1" parent="fQbAlz2_fIN0ou2b1Kk_-31">
          <mxGeometry width="40" height="30" as="geometry">
            <mxRectangle width="40" height="30" as="alternateBounds" />
          </mxGeometry>
        </mxCell>
        <mxCell id="fQbAlz2_fIN0ou2b1Kk_-33" value="shipping_date" style="shape=partialRectangle;html=1;whiteSpace=wrap;connectable=0;fillColor=none;top=0;left=0;bottom=0;right=0;align=left;spacingLeft=6;overflow=hidden;strokeColor=inherit;fontSize=16;" vertex="1" parent="fQbAlz2_fIN0ou2b1Kk_-31">
          <mxGeometry x="40" width="140" height="30" as="geometry">
            <mxRectangle width="140" height="30" as="alternateBounds" />
          </mxGeometry>
        </mxCell>
        <mxCell id="fQbAlz2_fIN0ou2b1Kk_-34" value="" style="shape=tableRow;horizontal=0;startSize=0;swimlaneHead=0;swimlaneBody=0;top=0;left=0;bottom=0;right=0;collapsible=0;dropTarget=0;fillColor=none;points=[[0,0.5],[1,0.5]];portConstraint=eastwest;strokeColor=inherit;fontSize=16;" vertex="1" parent="fQbAlz2_fIN0ou2b1Kk_-15">
          <mxGeometry y="180" width="180" height="30" as="geometry" />
        </mxCell>
        <mxCell id="fQbAlz2_fIN0ou2b1Kk_-35" value="" style="shape=partialRectangle;html=1;whiteSpace=wrap;connectable=0;fillColor=none;top=0;left=0;bottom=0;right=0;overflow=hidden;strokeColor=inherit;fontSize=16;" vertex="1" parent="fQbAlz2_fIN0ou2b1Kk_-34">
          <mxGeometry width="40" height="30" as="geometry">
            <mxRectangle width="40" height="30" as="alternateBounds" />
          </mxGeometry>
        </mxCell>
        <mxCell id="fQbAlz2_fIN0ou2b1Kk_-36" value="due_date" style="shape=partialRectangle;html=1;whiteSpace=wrap;connectable=0;fillColor=none;top=0;left=0;bottom=0;right=0;align=left;spacingLeft=6;overflow=hidden;strokeColor=inherit;fontSize=16;" vertex="1" parent="fQbAlz2_fIN0ou2b1Kk_-34">
          <mxGeometry x="40" width="140" height="30" as="geometry">
            <mxRectangle width="140" height="30" as="alternateBounds" />
          </mxGeometry>
        </mxCell>
        <mxCell id="fQbAlz2_fIN0ou2b1Kk_-37" value="" style="shape=tableRow;horizontal=0;startSize=0;swimlaneHead=0;swimlaneBody=0;top=0;left=0;bottom=0;right=0;collapsible=0;dropTarget=0;fillColor=none;points=[[0,0.5],[1,0.5]];portConstraint=eastwest;strokeColor=inherit;fontSize=16;" vertex="1" parent="fQbAlz2_fIN0ou2b1Kk_-15">
          <mxGeometry y="210" width="180" height="30" as="geometry" />
        </mxCell>
        <mxCell id="fQbAlz2_fIN0ou2b1Kk_-38" value="" style="shape=partialRectangle;html=1;whiteSpace=wrap;connectable=0;fillColor=none;top=0;left=0;bottom=0;right=0;overflow=hidden;strokeColor=inherit;fontSize=16;" vertex="1" parent="fQbAlz2_fIN0ou2b1Kk_-37">
          <mxGeometry width="40" height="30" as="geometry">
            <mxRectangle width="40" height="30" as="alternateBounds" />
          </mxGeometry>
        </mxCell>
        <mxCell id="fQbAlz2_fIN0ou2b1Kk_-39" value="sales_amount" style="shape=partialRectangle;html=1;whiteSpace=wrap;connectable=0;fillColor=none;top=0;left=0;bottom=0;right=0;align=left;spacingLeft=6;overflow=hidden;strokeColor=inherit;fontSize=16;" vertex="1" parent="fQbAlz2_fIN0ou2b1Kk_-37">
          <mxGeometry x="40" width="140" height="30" as="geometry">
            <mxRectangle width="140" height="30" as="alternateBounds" />
          </mxGeometry>
        </mxCell>
        <mxCell id="fQbAlz2_fIN0ou2b1Kk_-40" value="" style="shape=tableRow;horizontal=0;startSize=0;swimlaneHead=0;swimlaneBody=0;top=0;left=0;bottom=0;right=0;collapsible=0;dropTarget=0;fillColor=none;points=[[0,0.5],[1,0.5]];portConstraint=eastwest;strokeColor=inherit;fontSize=16;" vertex="1" parent="fQbAlz2_fIN0ou2b1Kk_-15">
          <mxGeometry y="240" width="180" height="30" as="geometry" />
        </mxCell>
        <mxCell id="fQbAlz2_fIN0ou2b1Kk_-41" value="" style="shape=partialRectangle;html=1;whiteSpace=wrap;connectable=0;fillColor=none;top=0;left=0;bottom=0;right=0;overflow=hidden;strokeColor=inherit;fontSize=16;" vertex="1" parent="fQbAlz2_fIN0ou2b1Kk_-40">
          <mxGeometry width="40" height="30" as="geometry">
            <mxRectangle width="40" height="30" as="alternateBounds" />
          </mxGeometry>
        </mxCell>
        <mxCell id="fQbAlz2_fIN0ou2b1Kk_-42" value="quantity" style="shape=partialRectangle;html=1;whiteSpace=wrap;connectable=0;fillColor=none;top=0;left=0;bottom=0;right=0;align=left;spacingLeft=6;overflow=hidden;strokeColor=inherit;fontSize=16;" vertex="1" parent="fQbAlz2_fIN0ou2b1Kk_-40">
          <mxGeometry x="40" width="140" height="30" as="geometry">
            <mxRectangle width="140" height="30" as="alternateBounds" />
          </mxGeometry>
        </mxCell>
        <mxCell id="fQbAlz2_fIN0ou2b1Kk_-44" value="" style="shape=tableRow;horizontal=0;startSize=0;swimlaneHead=0;swimlaneBody=0;top=0;left=0;bottom=0;right=0;collapsible=0;dropTarget=0;fillColor=none;points=[[0,0.5],[1,0.5]];portConstraint=eastwest;strokeColor=inherit;fontSize=16;" vertex="1" parent="fQbAlz2_fIN0ou2b1Kk_-15">
          <mxGeometry y="270" width="180" height="30" as="geometry" />
        </mxCell>
        <mxCell id="fQbAlz2_fIN0ou2b1Kk_-45" value="" style="shape=partialRectangle;html=1;whiteSpace=wrap;connectable=0;fillColor=none;top=0;left=0;bottom=0;right=0;overflow=hidden;strokeColor=inherit;fontSize=16;" vertex="1" parent="fQbAlz2_fIN0ou2b1Kk_-44">
          <mxGeometry width="40" height="30" as="geometry">
            <mxRectangle width="40" height="30" as="alternateBounds" />
          </mxGeometry>
        </mxCell>
        <mxCell id="fQbAlz2_fIN0ou2b1Kk_-46" value="price" style="shape=partialRectangle;html=1;whiteSpace=wrap;connectable=0;fillColor=none;top=0;left=0;bottom=0;right=0;align=left;spacingLeft=6;overflow=hidden;strokeColor=inherit;fontSize=16;" vertex="1" parent="fQbAlz2_fIN0ou2b1Kk_-44">
          <mxGeometry x="40" width="140" height="30" as="geometry">
            <mxRectangle width="140" height="30" as="alternateBounds" />
          </mxGeometry>
        </mxCell>
        <mxCell id="fQbAlz2_fIN0ou2b1Kk_-50" value="gold.dim_products" style="shape=table;startSize=30;container=1;collapsible=0;childLayout=tableLayout;fixedRows=1;rowLines=0;fontStyle=0;strokeColor=#36393d;fontSize=16;fillColor=#ffff88;" vertex="1" parent="1">
          <mxGeometry x="600" y="120" width="180" height="360" as="geometry" />
        </mxCell>
        <mxCell id="fQbAlz2_fIN0ou2b1Kk_-51" value="" style="shape=tableRow;horizontal=0;startSize=0;swimlaneHead=0;swimlaneBody=0;top=0;left=0;bottom=0;right=0;collapsible=0;dropTarget=0;fillColor=none;points=[[0,0.5],[1,0.5]];portConstraint=eastwest;strokeColor=inherit;fontSize=16;" vertex="1" parent="fQbAlz2_fIN0ou2b1Kk_-50">
          <mxGeometry y="30" width="180" height="30" as="geometry" />
        </mxCell>
        <mxCell id="fQbAlz2_fIN0ou2b1Kk_-52" value="PK" style="shape=partialRectangle;html=1;whiteSpace=wrap;connectable=0;fillColor=default;top=0;left=0;bottom=0;right=0;overflow=hidden;pointerEvents=1;strokeColor=inherit;fontSize=16;gradientColor=#E6E6E6;" vertex="1" parent="fQbAlz2_fIN0ou2b1Kk_-51">
          <mxGeometry width="40" height="30" as="geometry">
            <mxRectangle width="40" height="30" as="alternateBounds" />
          </mxGeometry>
        </mxCell>
        <mxCell id="fQbAlz2_fIN0ou2b1Kk_-53" value="product_key" style="shape=partialRectangle;html=1;whiteSpace=wrap;connectable=0;fillColor=default;top=0;left=0;bottom=0;right=0;align=left;spacingLeft=6;overflow=hidden;strokeColor=inherit;fontSize=16;gradientColor=#E6E6E6;" vertex="1" parent="fQbAlz2_fIN0ou2b1Kk_-51">
          <mxGeometry x="40" width="140" height="30" as="geometry">
            <mxRectangle width="140" height="30" as="alternateBounds" />
          </mxGeometry>
        </mxCell>
        <mxCell id="fQbAlz2_fIN0ou2b1Kk_-54" value="" style="shape=tableRow;horizontal=0;startSize=0;swimlaneHead=0;swimlaneBody=0;top=0;left=0;bottom=0;right=0;collapsible=0;dropTarget=0;fillColor=none;points=[[0,0.5],[1,0.5]];portConstraint=eastwest;strokeColor=inherit;fontSize=16;" vertex="1" parent="fQbAlz2_fIN0ou2b1Kk_-50">
          <mxGeometry y="60" width="180" height="30" as="geometry" />
        </mxCell>
        <mxCell id="fQbAlz2_fIN0ou2b1Kk_-55" value="" style="shape=partialRectangle;html=1;whiteSpace=wrap;connectable=0;fillColor=none;top=0;left=0;bottom=0;right=0;overflow=hidden;strokeColor=inherit;fontSize=16;" vertex="1" parent="fQbAlz2_fIN0ou2b1Kk_-54">
          <mxGeometry width="40" height="30" as="geometry">
            <mxRectangle width="40" height="30" as="alternateBounds" />
          </mxGeometry>
        </mxCell>
        <mxCell id="fQbAlz2_fIN0ou2b1Kk_-56" value="product_id" style="shape=partialRectangle;html=1;whiteSpace=wrap;connectable=0;fillColor=none;top=0;left=0;bottom=0;right=0;align=left;spacingLeft=6;overflow=hidden;strokeColor=inherit;fontSize=16;" vertex="1" parent="fQbAlz2_fIN0ou2b1Kk_-54">
          <mxGeometry x="40" width="140" height="30" as="geometry">
            <mxRectangle width="140" height="30" as="alternateBounds" />
          </mxGeometry>
        </mxCell>
        <mxCell id="fQbAlz2_fIN0ou2b1Kk_-57" value="" style="shape=tableRow;horizontal=0;startSize=0;swimlaneHead=0;swimlaneBody=0;top=0;left=0;bottom=0;right=0;collapsible=0;dropTarget=0;fillColor=none;points=[[0,0.5],[1,0.5]];portConstraint=eastwest;strokeColor=inherit;fontSize=16;" vertex="1" parent="fQbAlz2_fIN0ou2b1Kk_-50">
          <mxGeometry y="90" width="180" height="30" as="geometry" />
        </mxCell>
        <mxCell id="fQbAlz2_fIN0ou2b1Kk_-58" value="" style="shape=partialRectangle;html=1;whiteSpace=wrap;connectable=0;fillColor=none;top=0;left=0;bottom=0;right=0;overflow=hidden;strokeColor=inherit;fontSize=16;" vertex="1" parent="fQbAlz2_fIN0ou2b1Kk_-57">
          <mxGeometry width="40" height="30" as="geometry">
            <mxRectangle width="40" height="30" as="alternateBounds" />
          </mxGeometry>
        </mxCell>
        <mxCell id="fQbAlz2_fIN0ou2b1Kk_-59" value="product_number" style="shape=partialRectangle;html=1;whiteSpace=wrap;connectable=0;fillColor=none;top=0;left=0;bottom=0;right=0;align=left;spacingLeft=6;overflow=hidden;strokeColor=inherit;fontSize=16;" vertex="1" parent="fQbAlz2_fIN0ou2b1Kk_-57">
          <mxGeometry x="40" width="140" height="30" as="geometry">
            <mxRectangle width="140" height="30" as="alternateBounds" />
          </mxGeometry>
        </mxCell>
        <mxCell id="fQbAlz2_fIN0ou2b1Kk_-60" value="" style="shape=tableRow;horizontal=0;startSize=0;swimlaneHead=0;swimlaneBody=0;top=0;left=0;bottom=0;right=0;collapsible=0;dropTarget=0;fillColor=none;points=[[0,0.5],[1,0.5]];portConstraint=eastwest;strokeColor=inherit;fontSize=16;" vertex="1" parent="fQbAlz2_fIN0ou2b1Kk_-50">
          <mxGeometry y="120" width="180" height="30" as="geometry" />
        </mxCell>
        <mxCell id="fQbAlz2_fIN0ou2b1Kk_-61" value="" style="shape=partialRectangle;html=1;whiteSpace=wrap;connectable=0;fillColor=none;top=0;left=0;bottom=0;right=0;overflow=hidden;strokeColor=inherit;fontSize=16;" vertex="1" parent="fQbAlz2_fIN0ou2b1Kk_-60">
          <mxGeometry width="40" height="30" as="geometry">
            <mxRectangle width="40" height="30" as="alternateBounds" />
          </mxGeometry>
        </mxCell>
        <mxCell id="fQbAlz2_fIN0ou2b1Kk_-62" value="product_name" style="shape=partialRectangle;html=1;whiteSpace=wrap;connectable=0;fillColor=none;top=0;left=0;bottom=0;right=0;align=left;spacingLeft=6;overflow=hidden;strokeColor=inherit;fontSize=16;" vertex="1" parent="fQbAlz2_fIN0ou2b1Kk_-60">
          <mxGeometry x="40" width="140" height="30" as="geometry">
            <mxRectangle width="140" height="30" as="alternateBounds" />
          </mxGeometry>
        </mxCell>
        <mxCell id="fQbAlz2_fIN0ou2b1Kk_-63" value="" style="shape=tableRow;horizontal=0;startSize=0;swimlaneHead=0;swimlaneBody=0;top=0;left=0;bottom=0;right=0;collapsible=0;dropTarget=0;fillColor=none;points=[[0,0.5],[1,0.5]];portConstraint=eastwest;strokeColor=inherit;fontSize=16;" vertex="1" parent="fQbAlz2_fIN0ou2b1Kk_-50">
          <mxGeometry y="150" width="180" height="30" as="geometry" />
        </mxCell>
        <mxCell id="fQbAlz2_fIN0ou2b1Kk_-64" value="" style="shape=partialRectangle;html=1;whiteSpace=wrap;connectable=0;fillColor=none;top=0;left=0;bottom=0;right=0;overflow=hidden;strokeColor=inherit;fontSize=16;" vertex="1" parent="fQbAlz2_fIN0ou2b1Kk_-63">
          <mxGeometry width="40" height="30" as="geometry">
            <mxRectangle width="40" height="30" as="alternateBounds" />
          </mxGeometry>
        </mxCell>
        <mxCell id="fQbAlz2_fIN0ou2b1Kk_-65" value="category_id" style="shape=partialRectangle;html=1;whiteSpace=wrap;connectable=0;fillColor=none;top=0;left=0;bottom=0;right=0;align=left;spacingLeft=6;overflow=hidden;strokeColor=inherit;fontSize=16;" vertex="1" parent="fQbAlz2_fIN0ou2b1Kk_-63">
          <mxGeometry x="40" width="140" height="30" as="geometry">
            <mxRectangle width="140" height="30" as="alternateBounds" />
          </mxGeometry>
        </mxCell>
        <mxCell id="fQbAlz2_fIN0ou2b1Kk_-66" value="" style="shape=tableRow;horizontal=0;startSize=0;swimlaneHead=0;swimlaneBody=0;top=0;left=0;bottom=0;right=0;collapsible=0;dropTarget=0;fillColor=none;points=[[0,0.5],[1,0.5]];portConstraint=eastwest;strokeColor=inherit;fontSize=16;" vertex="1" parent="fQbAlz2_fIN0ou2b1Kk_-50">
          <mxGeometry y="180" width="180" height="30" as="geometry" />
        </mxCell>
        <mxCell id="fQbAlz2_fIN0ou2b1Kk_-67" value="" style="shape=partialRectangle;html=1;whiteSpace=wrap;connectable=0;fillColor=none;top=0;left=0;bottom=0;right=0;overflow=hidden;strokeColor=inherit;fontSize=16;" vertex="1" parent="fQbAlz2_fIN0ou2b1Kk_-66">
          <mxGeometry width="40" height="30" as="geometry">
            <mxRectangle width="40" height="30" as="alternateBounds" />
          </mxGeometry>
        </mxCell>
        <mxCell id="fQbAlz2_fIN0ou2b1Kk_-68" value="category" style="shape=partialRectangle;html=1;whiteSpace=wrap;connectable=0;fillColor=none;top=0;left=0;bottom=0;right=0;align=left;spacingLeft=6;overflow=hidden;strokeColor=inherit;fontSize=16;" vertex="1" parent="fQbAlz2_fIN0ou2b1Kk_-66">
          <mxGeometry x="40" width="140" height="30" as="geometry">
            <mxRectangle width="140" height="30" as="alternateBounds" />
          </mxGeometry>
        </mxCell>
        <mxCell id="fQbAlz2_fIN0ou2b1Kk_-69" value="" style="shape=tableRow;horizontal=0;startSize=0;swimlaneHead=0;swimlaneBody=0;top=0;left=0;bottom=0;right=0;collapsible=0;dropTarget=0;fillColor=none;points=[[0,0.5],[1,0.5]];portConstraint=eastwest;strokeColor=inherit;fontSize=16;" vertex="1" parent="fQbAlz2_fIN0ou2b1Kk_-50">
          <mxGeometry y="210" width="180" height="30" as="geometry" />
        </mxCell>
        <mxCell id="fQbAlz2_fIN0ou2b1Kk_-70" value="" style="shape=partialRectangle;html=1;whiteSpace=wrap;connectable=0;fillColor=none;top=0;left=0;bottom=0;right=0;overflow=hidden;strokeColor=inherit;fontSize=16;" vertex="1" parent="fQbAlz2_fIN0ou2b1Kk_-69">
          <mxGeometry width="40" height="30" as="geometry">
            <mxRectangle width="40" height="30" as="alternateBounds" />
          </mxGeometry>
        </mxCell>
        <mxCell id="fQbAlz2_fIN0ou2b1Kk_-71" value="subcategory" style="shape=partialRectangle;html=1;whiteSpace=wrap;connectable=0;fillColor=none;top=0;left=0;bottom=0;right=0;align=left;spacingLeft=6;overflow=hidden;strokeColor=inherit;fontSize=16;" vertex="1" parent="fQbAlz2_fIN0ou2b1Kk_-69">
          <mxGeometry x="40" width="140" height="30" as="geometry">
            <mxRectangle width="140" height="30" as="alternateBounds" />
          </mxGeometry>
        </mxCell>
        <mxCell id="fQbAlz2_fIN0ou2b1Kk_-72" value="" style="shape=tableRow;horizontal=0;startSize=0;swimlaneHead=0;swimlaneBody=0;top=0;left=0;bottom=0;right=0;collapsible=0;dropTarget=0;fillColor=none;points=[[0,0.5],[1,0.5]];portConstraint=eastwest;strokeColor=inherit;fontSize=16;" vertex="1" parent="fQbAlz2_fIN0ou2b1Kk_-50">
          <mxGeometry y="240" width="180" height="30" as="geometry" />
        </mxCell>
        <mxCell id="fQbAlz2_fIN0ou2b1Kk_-73" value="" style="shape=partialRectangle;html=1;whiteSpace=wrap;connectable=0;fillColor=none;top=0;left=0;bottom=0;right=0;overflow=hidden;strokeColor=inherit;fontSize=16;" vertex="1" parent="fQbAlz2_fIN0ou2b1Kk_-72">
          <mxGeometry width="40" height="30" as="geometry">
            <mxRectangle width="40" height="30" as="alternateBounds" />
          </mxGeometry>
        </mxCell>
        <mxCell id="fQbAlz2_fIN0ou2b1Kk_-74" value="mainteance" style="shape=partialRectangle;html=1;whiteSpace=wrap;connectable=0;fillColor=none;top=0;left=0;bottom=0;right=0;align=left;spacingLeft=6;overflow=hidden;strokeColor=inherit;fontSize=16;" vertex="1" parent="fQbAlz2_fIN0ou2b1Kk_-72">
          <mxGeometry x="40" width="140" height="30" as="geometry">
            <mxRectangle width="140" height="30" as="alternateBounds" />
          </mxGeometry>
        </mxCell>
        <mxCell id="fQbAlz2_fIN0ou2b1Kk_-75" value="" style="shape=tableRow;horizontal=0;startSize=0;swimlaneHead=0;swimlaneBody=0;top=0;left=0;bottom=0;right=0;collapsible=0;dropTarget=0;fillColor=none;points=[[0,0.5],[1,0.5]];portConstraint=eastwest;strokeColor=inherit;fontSize=16;" vertex="1" parent="fQbAlz2_fIN0ou2b1Kk_-50">
          <mxGeometry y="270" width="180" height="30" as="geometry" />
        </mxCell>
        <mxCell id="fQbAlz2_fIN0ou2b1Kk_-76" value="" style="shape=partialRectangle;html=1;whiteSpace=wrap;connectable=0;fillColor=none;top=0;left=0;bottom=0;right=0;overflow=hidden;strokeColor=inherit;fontSize=16;" vertex="1" parent="fQbAlz2_fIN0ou2b1Kk_-75">
          <mxGeometry width="40" height="30" as="geometry">
            <mxRectangle width="40" height="30" as="alternateBounds" />
          </mxGeometry>
        </mxCell>
        <mxCell id="fQbAlz2_fIN0ou2b1Kk_-77" value="cost" style="shape=partialRectangle;html=1;whiteSpace=wrap;connectable=0;fillColor=none;top=0;left=0;bottom=0;right=0;align=left;spacingLeft=6;overflow=hidden;strokeColor=inherit;fontSize=16;" vertex="1" parent="fQbAlz2_fIN0ou2b1Kk_-75">
          <mxGeometry x="40" width="140" height="30" as="geometry">
            <mxRectangle width="140" height="30" as="alternateBounds" />
          </mxGeometry>
        </mxCell>
        <mxCell id="fQbAlz2_fIN0ou2b1Kk_-78" value="" style="shape=tableRow;horizontal=0;startSize=0;swimlaneHead=0;swimlaneBody=0;top=0;left=0;bottom=0;right=0;collapsible=0;dropTarget=0;fillColor=none;points=[[0,0.5],[1,0.5]];portConstraint=eastwest;strokeColor=inherit;fontSize=16;" vertex="1" parent="fQbAlz2_fIN0ou2b1Kk_-50">
          <mxGeometry y="300" width="180" height="30" as="geometry" />
        </mxCell>
        <mxCell id="fQbAlz2_fIN0ou2b1Kk_-79" value="" style="shape=partialRectangle;html=1;whiteSpace=wrap;connectable=0;fillColor=none;top=0;left=0;bottom=0;right=0;overflow=hidden;strokeColor=inherit;fontSize=16;" vertex="1" parent="fQbAlz2_fIN0ou2b1Kk_-78">
          <mxGeometry width="40" height="30" as="geometry">
            <mxRectangle width="40" height="30" as="alternateBounds" />
          </mxGeometry>
        </mxCell>
        <mxCell id="fQbAlz2_fIN0ou2b1Kk_-80" value="product_line" style="shape=partialRectangle;html=1;whiteSpace=wrap;connectable=0;fillColor=none;top=0;left=0;bottom=0;right=0;align=left;spacingLeft=6;overflow=hidden;strokeColor=inherit;fontSize=16;" vertex="1" parent="fQbAlz2_fIN0ou2b1Kk_-78">
          <mxGeometry x="40" width="140" height="30" as="geometry">
            <mxRectangle width="140" height="30" as="alternateBounds" />
          </mxGeometry>
        </mxCell>
        <mxCell id="fQbAlz2_fIN0ou2b1Kk_-81" value="" style="shape=tableRow;horizontal=0;startSize=0;swimlaneHead=0;swimlaneBody=0;top=0;left=0;bottom=0;right=0;collapsible=0;dropTarget=0;fillColor=none;points=[[0,0.5],[1,0.5]];portConstraint=eastwest;strokeColor=inherit;fontSize=16;" vertex="1" parent="fQbAlz2_fIN0ou2b1Kk_-50">
          <mxGeometry y="330" width="180" height="30" as="geometry" />
        </mxCell>
        <mxCell id="fQbAlz2_fIN0ou2b1Kk_-82" value="" style="shape=partialRectangle;html=1;whiteSpace=wrap;connectable=0;fillColor=none;top=0;left=0;bottom=0;right=0;overflow=hidden;strokeColor=inherit;fontSize=16;" vertex="1" parent="fQbAlz2_fIN0ou2b1Kk_-81">
          <mxGeometry width="40" height="30" as="geometry">
            <mxRectangle width="40" height="30" as="alternateBounds" />
          </mxGeometry>
        </mxCell>
        <mxCell id="fQbAlz2_fIN0ou2b1Kk_-83" value="start_date" style="shape=partialRectangle;html=1;whiteSpace=wrap;connectable=0;fillColor=none;top=0;left=0;bottom=0;right=0;align=left;spacingLeft=6;overflow=hidden;strokeColor=inherit;fontSize=16;" vertex="1" parent="fQbAlz2_fIN0ou2b1Kk_-81">
          <mxGeometry x="40" width="140" height="30" as="geometry">
            <mxRectangle width="140" height="30" as="alternateBounds" />
          </mxGeometry>
        </mxCell>
        <mxCell id="fQbAlz2_fIN0ou2b1Kk_-84" value="" style="shape=link;html=1;rounded=0;exitX=0.007;exitY=0.013;exitDx=0;exitDy=0;exitPerimeter=0;entryX=0.993;entryY=0.04;entryDx=0;entryDy=0;entryPerimeter=0;" edge="1" parent="fQbAlz2_fIN0ou2b1Kk_-50" source="fQbAlz2_fIN0ou2b1Kk_-54" target="fQbAlz2_fIN0ou2b1Kk_-54">
          <mxGeometry width="100" relative="1" as="geometry">
            <mxPoint x="40" y="60" as="sourcePoint" />
            <mxPoint x="140" y="60" as="targetPoint" />
          </mxGeometry>
        </mxCell>
        <mxCell id="fQbAlz2_fIN0ou2b1Kk_-86" value="" style="edgeStyle=entityRelationEdgeStyle;fontSize=12;html=1;endArrow=ERzeroToMany;startArrow=ERmandOne;rounded=0;exitX=1;exitY=0.5;exitDx=0;exitDy=0;" edge="1" parent="1" source="QJzJKz0_dobVJu3b7yC2-16">
          <mxGeometry width="100" height="100" relative="1" as="geometry">
            <mxPoint x="240" y="240" as="sourcePoint" />
            <mxPoint x="335" y="230" as="targetPoint" />
          </mxGeometry>
        </mxCell>
        <mxCell id="fQbAlz2_fIN0ou2b1Kk_-88" value="" style="edgeStyle=entityRelationEdgeStyle;fontSize=12;html=1;endArrow=ERzeroToMany;startArrow=ERmandOne;rounded=0;entryX=1;entryY=0.25;entryDx=0;entryDy=0;exitX=0;exitY=0.5;exitDx=0;exitDy=0;" edge="1" parent="1" source="fQbAlz2_fIN0ou2b1Kk_-51" target="fQbAlz2_fIN0ou2b1Kk_-15">
          <mxGeometry width="100" height="100" relative="1" as="geometry">
            <mxPoint x="490" y="360" as="sourcePoint" />
            <mxPoint x="590" y="260" as="targetPoint" />
            <Array as="points">
              <mxPoint x="670" y="260" />
            </Array>
          </mxGeometry>
        </mxCell>
        <mxCell id="fQbAlz2_fIN0ou2b1Kk_-89" value="&lt;h1 style=&quot;margin-top: 0px;&quot;&gt;&lt;font style=&quot;font-size: 18px;&quot;&gt;Sales Calculation&lt;/font&gt;&lt;/h1&gt;&lt;p&gt;&lt;font style=&quot;font-size: 16px;&quot;&gt;Sales = Quantity * Price&lt;/font&gt;&lt;/p&gt;" style="text;html=1;whiteSpace=wrap;overflow=hidden;rounded=0;" vertex="1" parent="1">
          <mxGeometry x="420" y="410" width="180" height="120" as="geometry" />
        </mxCell>
        <mxCell id="fQbAlz2_fIN0ou2b1Kk_-95" value="" style="endArrow=classic;html=1;rounded=0;exitX=0.75;exitY=0;exitDx=0;exitDy=0;" edge="1" parent="1" source="fQbAlz2_fIN0ou2b1Kk_-89">
          <mxGeometry width="50" height="50" relative="1" as="geometry">
            <mxPoint x="400" y="350" as="sourcePoint" />
            <mxPoint x="450" y="300" as="targetPoint" />
          </mxGeometry>
        </mxCell>
      </root>
    </mxGraphModel>
  </diagram>
</mxfile>
